<?xml version="1.0" standalone="no"?><!DOCTYPE svg PUBLIC "-//W3C//DTD SVG 1.1//EN" "http://www.w3.org/Graphics/SVG/1.1/DTD/svg11.dtd"><svg t="1762841149515" class="icon" viewBox="0 0 1024 1024" version="1.1" xmlns="http://www.w3.org/2000/svg" p-id="4099" xmlns:xlink="http://www.w3.org/1999/xlink" width="200" height="200"><path d="M510.912951 774.81496c-144.661114 0-262.062388-117.401274-262.062388-262.062388s117.401274-262.062388 262.062388-262.062387S772.975339 367.92422 772.975339 512.752572c0 144.661114-117.401274 262.062388-262.062388 262.062388z m0-34.952801c125.428711 0 227.109587-101.680875 227.109587-227.109587s-101.680875-227.109587-227.109587-227.109587S283.803364 387.323861 283.803364 512.752572s101.680875 227.109587 227.109587 227.109587z" fill="#00B3EA" p-id="4100"></path><path d="M517.769721 384.648048c23.915074 0 43.314715 6.355055 58.198922 19.734118 14.884207 13.044586 22.40993 30.939082 22.40993 53.349012 0 18.228973-4.84991 33.447656-14.215254 45.488812-3.344766 4.180957-13.880777 13.713539-31.273559 29.099461-7.024008 6.020578-12.375633 12.710109-15.720399 19.399641-4.013719 7.358484-6.020578 15.720398-6.020578 24.584027v6.355055h-39.969949v-6.355055c0-13.713539 2.174098-25.754695 7.358484-35.454515 4.84991-10.368773 19.065164-25.754695 42.144047-46.157766l6.355055-7.024008c6.689531-8.529152 10.368773-17.56002 10.368774-27.25984 0-13.044586-3.679242-23.078883-10.870489-30.604606-7.358484-7.358484-18.228973-11.204965-31.775273-11.204964-16.723828 0-29.099461 5.184387-36.457946 16.054875-6.689531 9.030867-10.034297 21.573738-10.034297 37.96309h-39.133758c0-27.25984 7.860199-48.499102 23.41336-64.052262 15.887637-16.054875 37.628613-23.915074 65.22293-23.915075z m-6.689532 217.911482c7.860199 0 14.549731 2.174098 19.734118 7.358484 5.184387 4.84991 7.860199 11.204965 7.860199 19.065164s-3.010289 14.215254-8.194676 19.399641c-5.184387 4.84991-11.873918 7.358484-19.399641 7.358484s-14.215254-2.675813-19.39964-7.860199c-5.184387-5.184387-7.860199-11.539441-7.860199-19.065164 0-7.860199 2.675813-14.215254 7.860199-19.065164 5.184387-4.84991 11.873918-7.191246 19.39964-7.191246z" fill="#E8A600" p-id="4101"></path></svg>