<?xml version="1.0" standalone="no"?><!DOCTYPE svg PUBLIC "-//W3C//DTD SVG 1.1//EN" "http://www.w3.org/Graphics/SVG/1.1/DTD/svg11.dtd"><svg t="1762841113854" class="icon" viewBox="0 0 1024 1024" version="1.1" xmlns="http://www.w3.org/2000/svg" p-id="1450" xmlns:xlink="http://www.w3.org/1999/xlink" width="200" height="200"><path d="M652.23388 328.416541c-6.472333-64.57281-60.692755-113.6254-125.332462-113.47488-64.639707-0.217417-118.910302 48.902071-125.332463 113.47488l-1.287776 12.827596h253.257202l-1.304501-12.827596z" fill="#E8A600" p-id="1451"></path><path d="M789.591167 544.846671c-0.100346-6.355262-2.6759-12.292415-7.241654-16.70765-4.54903-4.39851-10.502907-6.773372-16.858169-6.673025l-44.670804 0.050173V393.859019l24.384138-23.614817c9.231855-9.231855 9.265303-24.31724 0.050173-33.666166l-0.050173-0.050173c-9.248579-9.248579-24.300516-9.248579-33.498922-0.033449l-43.366303 42.045078H378.322075l-39.436075-38.11485c-9.265303-9.265303-24.333965-9.265303-33.615993 0.016725-9.248579 9.315477-9.231855 24.417587 0.050173 33.699614l34.870321 33.866859v114.110407l-45.440125 0.066897c-13.078461 0.217417-23.531195 11.071536-23.313778 24.183446 0.100346 6.355262 2.6759 12.292415 7.224929 16.70765 4.54903 4.415235 10.536356 6.790096 16.824721 6.673025l44.637356-0.050173v29.485072c0 27.294179 6.95734 54.186973 20.169595 77.985758l-42.814398 41.476449c-9.231855 9.315477-9.231855 24.400862 0.016724 33.649441 9.265303 9.265303 24.333965 9.265303 33.565819 0.033449l38.38244-37.228457c30.154047 29.234207 69.606847 45.289606 111.551578 45.289606h58.970144c38.165023 0 74.958646-13.630365 104.042334-38.482786l35.238257 34.201346c4.465408 4.498857 10.402561 6.974064 16.741098 6.990788h0.050174c6.288365 0 12.208793-2.441759 16.657476-6.890442l0.100347-0.100346c9.248579-9.248579 9.248579-24.333965-0.033449-33.699615l-37.345528-36.35879c16.657477-25.989678 25.437774-55.976481 25.437773-86.933298V569.130463l45.440126-0.050173c13.078461-0.217417 23.531195-11.038087 23.313778-24.066375l-0.016725-0.167244z m-259.043836-14.516757c-11.35585 0-20.604429 8.445809-20.604429 18.814922V723.49644h-8.847194c-68.369243 0-123.994512-55.825962-123.994512-124.429347V415.500359H684.04364v183.633632c0 68.603384-55.625269 124.429346-123.994512 124.429346h-8.897367V549.16156c0-10.385837-9.248579-18.831646-20.60443-18.831646z" fill="#00B3EA" p-id="1452"></path></svg>